name C:\Users\Nicos\Desktop\Gil_twoSteps\Study2\ExperimentalData\IK_Splined\twoSteps_IK_BSplines_225_meshInts_study2_p02_s_01_lowIK_modROI.mot
datacolumns 38
datarows 11
range 0.43681601 0.44232889
endheader
                time	         pelvis_tilt	         pelvis_list	     pelvis_rotation	           pelvis_tx	           pelvis_ty	           pelvis_tz	       hip_flexion_r	     hip_adduction_r	      hip_rotation_r	        knee_angle_r	       ankle_angle_r	    subtalar_angle_r	         mtp_angle_r	       hip_flexion_l	     hip_adduction_l	      hip_rotation_l	        knee_angle_l	       ankle_angle_l	    subtalar_angle_l	         mtp_angle_l	    lumbar_extension	      lumbar_bending	     lumbar_rotation	          arm_flex_r	           arm_add_r	           arm_rot_r	        elbow_flex_r	           pro_sup_r	        wrist_flex_r	         wrist_dev_r	          arm_flex_l	           arm_add_l	           arm_rot_l	        elbow_flex_l	           pro_sup_l	        wrist_flex_l	         wrist_dev_l	
          0.43681601	        -21.48765042	          1.38033662	        -11.33981946	         -0.86306358	          0.85368728	          0.34097454	         25.57224109	          1.66760147	         10.76991924	        -56.93998814	         18.82824751	        -16.04259713	         12.50078575	         53.25502185	         -3.65269142	        -14.78741898	       -110.51342984	         -6.00476983	        -14.41218642	         10.21413985	        -25.64582017	         -3.37512543	         -6.78036554	         32.58888929	          1.22433658	          9.80553646	         81.50153435	         71.96581965	         -5.49342654	         10.70939189	        -43.55547289	         -9.84045299	        -16.99544490	         37.17785819	         71.06461581	        -10.41512086	         19.40257661	
          0.43776532	        -21.44730267	          1.52425170	        -11.46536676	         -0.85887989	          0.85356647	          0.34122017	         25.17965824	          1.44719748	         10.84606844	        -56.68092734	         18.72057858	        -15.94253820	         12.72517043	         53.91105647	         -3.57172503	        -14.72522076	       -110.77290680	         -5.77674204	        -14.44432540	         10.18701053	        -25.58119479	         -3.65043385	         -6.78398773	         33.41747799	          1.50200846	          9.96626081	         81.83694884	         71.94629410	         -5.51943354	         10.71783583	        -44.34121733	         -9.73769131	        -17.09032288	         37.38116361	         71.47623529	        -10.31989587	         19.53641158	
          0.43845333	        -21.41979671	          1.63019393	        -11.55276173	         -0.85584053	          0.85347365	          0.34139270	         24.89520488	          1.28255655	         10.89827234	        -56.48869633	         18.64253037	        -15.86592182	         12.89017392	         54.38859892	         -3.51009547	        -14.67853641	       -110.95494066	         -5.61524623	        -14.47284137	         10.16129017	        -25.53061116	         -3.85026366	         -6.78376627	         34.01175884	          1.69658188	         10.08089004	         82.08688700	         71.93239185	         -5.53860788	         10.72371611	        -44.91094114	         -9.66380914	        -17.15801073	         37.53707574	         71.77460720	        -10.24971733	         19.63157809	
          0.43845333	        -21.41979671	          1.63019393	        -11.55276173	         -0.85584053	          0.85347365	          0.34139270	         24.89520488	          1.28255655	         10.89827234	        -56.48869633	         18.64253037	        -15.86592182	         12.89017392	         54.38859892	         -3.51009547	        -14.67853641	       -110.95494066	         -5.61524623	        -14.47284137	         10.16129017	        -25.53061116	         -3.85026366	         -6.78376627	         34.01175884	          1.69658188	         10.08089004	         82.08688700	         71.93239185	         -5.53860788	         10.72371611	        -44.91094114	         -9.66380914	        -17.15801073	         37.53707574	         71.77460720	        -10.24971733	         19.63157809	
          0.43875379	        -21.40899269	          1.67760047	        -11.58842588	         -0.85450821	          0.85342945	          0.34146422	         24.77103195	          1.20724528	         10.91899293	        -56.40163305	         18.60843575	        -15.82961114	         12.96388837	         54.59859261	         -3.48112945	        -14.65703150	       -111.03024566	         -5.54734142	        -14.48892884	         10.14584249	        -25.50591426	         -3.93773923	         -6.78168884	         34.26694362	          1.77691266	         10.12965803	         82.20080025	         71.92649385	         -5.54720809	         10.72611744	        -45.15992053	         -9.63195794	        -17.18682241	         37.61112409	         71.90494315	        -10.21825989	         19.67186425	
          0.43970310	        -21.37485637	          1.82738576	        -11.70111004	         -0.85029861	          0.85328982	          0.34169018	         24.37869616	          0.96929243	         10.98446155	        -56.12654863	         18.50071066	        -15.71488420	         13.19679596	         55.26208695	         -3.38960863	        -14.58908476	       -111.26817875	         -5.33278997	        -14.53975865	         10.09703412	        -25.42788211	         -4.21412632	         -6.77512503	         35.07322335	          2.03072514	         10.28374497	         82.56071962	         71.90785856	         -5.57438124	         10.73370466	        -45.94659376	         -9.53132116	        -17.27785558	         37.84508664	         72.31675156	        -10.11886721	         19.79915207	
          0.44039111	        -21.35115980	          1.93692756	        -11.78055433	         -0.84724265	          0.85318537	          0.34185053	         24.09426930	          0.79393269	         11.03006899	        -55.92426813	         18.42232777	        -15.62928594	         13.36705349	         55.74398603	         -3.32154203	        -14.53899901	       -111.43673136	         -5.17949166	        -14.57937054	         10.05898615	        -25.36909120	         -4.41461525	         -6.76870302	         35.65398887	          2.20989868	         10.39516621	         82.82571492	         71.89396135	         -5.59442486	         10.73902441	        -46.51677875	         -9.45867677	        -17.34434055	         38.01939645	         72.61385892	        -10.04604981	         19.89022439	
          0.44039111	        -21.35115980	          1.93692756	        -11.78055433	         -0.84724265	          0.85318537	          0.34185053	         24.09426930	          0.79393269	         11.03006899	        -55.92426813	         18.42232777	        -15.62928594	         13.36705349	         55.74398603	         -3.32154203	        -14.53899901	       -111.43673136	         -5.17949166	        -14.57937054	         10.05898615	        -25.36909120	         -4.41461525	         -6.76870302	         35.65398887	          2.20989868	         10.39516621	         82.82571492	         71.89396135	         -5.59442486	         10.73902441	        -46.51677875	         -9.45867677	        -17.34434055	         38.01939645	         72.61385892	        -10.04604981	         19.89022439	
          0.44069157	        -21.34221227	          1.98608764	        -11.81226379	         -0.84590130	          0.85313539	          0.34191597	         23.96994778	          0.71345406	         11.04751514	        -55.83201998	         18.38768222	        -15.58861579	         13.44336344	         55.95582090	         -3.28948523	        -14.51599669	       -111.50511927	         -5.11549492	        -14.60039161	         10.03878079	        -25.34041373	         -4.50240892	         -6.76366367	         35.90280199	          2.28173336	         10.44348503	         82.94700320	         71.88736707	         -5.60364776	         10.74110721	        -46.76584284	         -9.42734433	        -17.37405803	         38.10188911	         72.74179558	        -10.01319928	         19.92841331	
          0.44164088	        -21.31394172	          2.14141340	        -11.91245273	         -0.84166316	          0.85297750	          0.34212272	         23.57714254	          0.45917443	         11.10263784	        -55.54055350	         18.27821644	        -15.46011474	         13.68447172	         56.62513264	         -3.18819885	        -14.44331876	       -111.72119715	         -4.91329133	        -14.66680962	          9.97494008	        -25.24980463	         -4.77980109	         -6.74774142	         36.68894989	          2.50870164	         10.59615278	         83.33022464	         71.86653183	         -5.63278835	         10.74768801	        -47.55278367	         -9.32834660	        -17.46795311	         38.36253223	         73.14602318	         -9.90940503	         20.04907471	
          0.44232889	        -21.29385615	          2.25438912	        -11.98414507	         -0.83858922	          0.85286173	          0.34227112	         23.29235108	          0.27372281	         11.14182041	        -55.32804092	         18.19861651	        -15.36599957	         13.85978326	         57.11050688	         -3.11411052	        -14.39037626	       -111.87610676	         -4.76760331	        -14.71592620	          9.92804475	        -25.18326043	         -4.98092187	         -6.73555828	         37.25734405	          2.67094335	         10.70706649	         83.60966186	         71.85097412	         -5.65411999	         10.75236457	        -48.12308225	         -9.25666950	        -17.53676046	         38.55321511	         73.43769365	         -9.83384295	         20.13599045	
